<svg xmlns="http://www.w3.org/2000/svg" viewBox="0 0 985.51 170"><defs><style>.cls-1{fill:#975fce;}</style></defs><g id="レイヤー_2" data-name="レイヤー 2"><g id="レイヤー_1-2" data-name="レイヤー 1"><path class="cls-1" d="M619.77,75.13c-9.91,0-19.82-.06-29.73,0-2.66,0-5.42-2.48-5.23-5.15a88.35,88.35,0,0,0,0-9.49c-.13-3.67,2.27-5.6,5.63-5.63,6.41-.06,12.83,0,19.24,0,13.07,0,26.15,0,39.23,0,2.9,0,5,1.13,5.61,3.71a4.93,4.93,0,0,1,.19,1.21c0,3.46-.13,6.93.06,10.37.12,2.38-2.42,5-5,5C639.77,75.09,629.77,75.13,619.77,75.13Z"/><path class="cls-1" d="M619.79,94.88c10,0,19.91,0,29.87,0,2.58,0,5.31,2.48,5.13,5.13a88.17,88.17,0,0,0,0,9.48c.15,3.68-2.27,5.63-5.73,5.67-3.75,0-7.51,0-11.26,0-15.69,0-31.38,0-47.07,0-3.14,0-4.94-1.18-5.71-3.78a4.63,4.63,0,0,1-.13-1.24c0-3.41.14-6.84-.05-10.24-.14-2.41,2.41-5,5-5C599.8,94.9,609.8,94.88,619.79,94.88Z"/><path class="cls-1" d="M979.64,55.81a75.12,75.12,0,0,0-27.19-33A75.75,75.75,0,0,0,910.51,10a74.21,74.21,0,0,0-28.19,5.47c-.45.18-.91.36-1.32.54s-.54.23-.77.37A75.64,75.64,0,0,0,859,30.49a78.58,78.58,0,0,0-5.69,6c-2.83,3.24-5.92,7.11-9.75,12.26l-2,2.64C839.79,53.81,823.26,78,820.3,82.45c-1.14,1.73-2.46,3.64-3.87,5.65L814,91.6c-2.86,4.1-6.28,8.7-9.61,13-1.54,2-3.09,3.83-4.41,5.37a42.48,42.48,0,0,1-3.28,3.46,37.76,37.76,0,0,1-12.16,7.84,38.45,38.45,0,0,1-14.66,2.87,37.61,37.61,0,0,1-10.34-1.42,13.16,13.16,0,0,1-1.87-.54c-1-.32-2-.73-3-1.14a38.8,38.8,0,0,1-17.22-14.16,39.28,39.28,0,0,1-4.91-10.2,39.29,39.29,0,0,1,1.27-26.87A39.38,39.38,0,0,1,748,52.58a38.22,38.22,0,0,1,10.25-4.87,37.79,37.79,0,0,1,11.56-1.82,40.36,40.36,0,0,1,14.71,2.82,40.85,40.85,0,0,1,12.16,7.83c.86.82,2,2.1,3.28,3.51,2.28,2.68,5.1,6.19,8.06,10.15l1.59,2.14c4.46-6.6,18.4-27.05,20.31-29.64l1.1-1.5c-1.32-1.65-2.64-3.24-4-4.7-2.14-2.46-3.87-4.32-5.69-6.05a76.24,76.24,0,0,0-23.27-15,75.11,75.11,0,0,0-90.44,27.59,77,77,0,0,0-9.47,19.63A77.18,77.18,0,0,0,694.85,85a74.36,74.36,0,0,0,5.87,29.19,75.32,75.32,0,0,0,27.14,33,77.33,77.33,0,0,0,19.68,9.42,74.61,74.61,0,0,0,72.35-15.8c.51-.41,1-.87,1.41-1.28A66.29,66.29,0,0,0,827,133.5c2.87-3.28,5.92-7.15,9.79-12.25l2-2.64c1.14-1.55,10.34-15,17.76-25.87,4.28-6.28,7.83-11.47,8.52-12.47l1.32-1.83c3.18-4.55,6.6-9.19,9.61-13,1.54-2,3.09-3.83,4.41-5.37a42.48,42.48,0,0,1,3.28-3.46,39.33,39.33,0,0,1,12.11-7.83c1.14-.46,2.28-.87,3.33-1.19s2.14-.59,3.28-.82a42.38,42.38,0,0,1,8.05-.86A39.49,39.49,0,0,1,925.72,49a38.8,38.8,0,0,1,17.22,14.16,37.33,37.33,0,0,1,4.91,10.25A38.2,38.2,0,0,1,949.63,85a38.85,38.85,0,0,1-17.26,32.42,37.62,37.62,0,0,1-10.25,4.92,39.13,39.13,0,0,1-38.43-8.88c-.86-.82-2-2.09-3.32-3.55-2.1-2.41-4.74-5.74-8.11-10.2-.5-.64-1-1.32-1.46-2-.95,1.36-1.91,2.82-3,4.32-11.34,16.58-16.25,23.72-17.3,25.23l-1.19,1.59c1.37,1.6,2.65,3.19,3.92,4.6a68.66,68.66,0,0,0,5.74,6.1A74.59,74.59,0,0,0,910.51,160,75.09,75.09,0,0,0,979.64,55.81Z"/><path class="cls-1" d="M465.4,139.21H447.88a3.59,3.59,0,0,1-4-3.51,46.45,46.45,0,0,0-5.49-16c-2.91-5.46-6-10.83-8.85-16.31a50.18,50.18,0,0,1-5.53-17c-1.62-12.94,1.75-24.41,10.51-34.13A40,40,0,0,1,459.45,39a41.81,41.81,0,0,1,47.19,34.48,44.69,44.69,0,0,1-2.59,23.55,110.79,110.79,0,0,1-7.47,15,106.78,106.78,0,0,0-7.3,14.44A38.4,38.4,0,0,0,486.9,136a3.56,3.56,0,0,1-3.67,3.17Zm0-7.17c4.69,0,9.39,0,14.09,0,.52,0,.72-.14.86-.67.63-2.35,1.22-4.72,2-7a96.89,96.89,0,0,1,7.44-15,117.11,117.11,0,0,0,7.05-13.8,38.09,38.09,0,0,0,2.75-20.11,34.65,34.65,0,0,0-39.38-29.25,33.1,33.1,0,0,0-20.75,11.28c-7.14,8.15-9.81,17.68-8.31,28.39a47,47,0,0,0,5.35,15.44c2.63,5,5.43,9.85,8.09,14.81a55.42,55.42,0,0,1,5.72,15c.17.78.45.95,1.18.95C456.19,132,460.81,132,465.44,132Z"/><path class="cls-1" d="M465.43,141.19h15.75a3.59,3.59,0,1,1,0,7.16q-15.87,0-31.75,0a3.58,3.58,0,0,1-1-7,4.92,4.92,0,0,1,1.21-.11Z"/><path class="cls-1" d="M465.42,150.33H480a3.47,3.47,0,0,1,3.4,2.45,3.42,3.42,0,0,1-1.28,4,4.27,4.27,0,0,1-2.11.7c-9.76,0-19.51,0-29.26,0a3.58,3.58,0,0,1,0-7.15C455.67,150.32,460.54,150.33,465.42,150.33Z"/><path class="cls-1" d="M465.42,159.78c4.11,0,8.22,0,12.34,0,.64,0,1.22.07,1.52.74a1.48,1.48,0,0,1-.42,1.66c-1.67,2-3.32,3.91-5,5.87a5.36,5.36,0,0,1-4.21,2h-8.53a5.35,5.35,0,0,1-4.2-2q-2.51-3-5-5.93a1.41,1.41,0,0,1-.37-1.59,1.34,1.34,0,0,1,1.44-.75C457.14,159.79,461.28,159.78,465.42,159.78Z"/><path class="cls-1" d="M463,11.8c0-3.07,0-6.14,0-9.21A2.39,2.39,0,0,1,466.17.13a2.42,2.42,0,0,1,1.65,2.54V20.94a2.42,2.42,0,1,1-4.8,0Z"/><path class="cls-1" d="M533.12,117.9a2.35,2.35,0,0,1-3.66,2c-2.48-1.4-4.93-2.83-7.39-4.25-2.92-1.69-5.85-3.36-8.76-5.07a2.39,2.39,0,1,1,2.5-4.07l12.53,7.23,3.49,2A2.33,2.33,0,0,1,533.12,117.9Z"/><path class="cls-1" d="M396.39,40.68a2.34,2.34,0,0,1,3.67-1.79q4.49,2.56,9,5.17c2.39,1.38,4.79,2.75,7.18,4.15a2.39,2.39,0,1,1-2.47,4.09q-4.78-2.74-9.55-5.51l-6.46-3.72A2.42,2.42,0,0,1,396.39,40.68Z"/><path class="cls-1" d="M534.45,40.72a2.52,2.52,0,0,1-1.5,2.45l-13,7.49c-1,.55-1.93,1.12-2.91,1.67a2.4,2.4,0,1,1-2.38-4.15q8.05-4.66,16.14-9.32A2.34,2.34,0,0,1,534.45,40.72Z"/><path class="cls-1" d="M427.26,10.33A2.21,2.21,0,0,1,429,11.54q4.73,8.15,9.42,16.32a2.39,2.39,0,1,1-4.19,2.29c-2.59-4.45-5.15-8.9-7.72-13.36-.57-1-1.18-1.95-1.7-3A2.42,2.42,0,0,1,427.26,10.33Z"/><path class="cls-1" d="M506.29,13a5,5,0,0,1-.35,1q-4.65,8.1-9.34,16.19a2.39,2.39,0,1,1-4.11-2.42q4.63-8.07,9.3-16.13a2.38,2.38,0,0,1,2.77-1.19A2.42,2.42,0,0,1,506.29,13Z"/><path class="cls-1" d="M396.38,117.82a2.2,2.2,0,0,1,1.16-2q8.16-4.74,16.34-9.44a2.39,2.39,0,1,1,2.37,4.15q-8.16,4.74-16.34,9.43A2.34,2.34,0,0,1,396.38,117.82Z"/><path class="cls-1" d="M397.82,81.77c-3.12,0-6.24,0-9.36,0a2.4,2.4,0,0,1-2.39-2,2.38,2.38,0,0,1,1.47-2.64,3,3,0,0,1,1-.17q9.29,0,18.58,0a2.33,2.33,0,0,1,2.5,2.06,2.36,2.36,0,0,1-1.79,2.64,3.86,3.86,0,0,1-.9.07Z"/><path class="cls-1" d="M533,81.77h-9.21a2.37,2.37,0,0,1-2.61-2.35A2.33,2.33,0,0,1,523.71,77q9.25,0,18.5,0a2.36,2.36,0,0,1,2.58,2.39,2.39,2.39,0,0,1-2.59,2.38Z"/><path class="cls-1" d="M478.71,83.84a14.55,14.55,0,0,1,1.7,5.88,12.93,12.93,0,0,1-1.58,7.7,6.86,6.86,0,0,1-6.49,3.51,6.31,6.31,0,0,1-5.83-4c-2-4.7-2.33-9.37.9-13.77.31-.42.68-.79,1.09-1.27a16.52,16.52,0,0,0-7.37,0,2.56,2.56,0,0,0,.18.3c2.73,2.72,3.49,6.07,3.13,9.79a13.2,13.2,0,0,1-1.39,5.1,6.66,6.66,0,0,1-5.79,3.86,6.86,6.86,0,0,1-6.46-3.43,13.07,13.07,0,0,1-1.59-8.22,14.73,14.73,0,0,1,1.65-5.44,5.34,5.34,0,0,0-4.2,4.91,12.63,12.63,0,0,0,1,5.64c1.35,3.2,2.79,6.35,4.28,9.48,1.7,3.54,3.69,7,4.77,10.76a23.3,23.3,0,0,1,.7,4.41,2.26,2.26,0,0,1-2.14,2.34,2.23,2.23,0,0,1-2.54-2c-.21-3.58-1.81-6.66-3.3-9.8-2-4.14-4-8.25-5.88-12.43a22.21,22.21,0,0,1-1.72-6.75,10.52,10.52,0,0,1,9.56-11.66c1.17-.09,2.37.09,3.56.1a2.31,2.31,0,0,0,1.07-.19,19.51,19.51,0,0,1,17.46,0,2.29,2.29,0,0,0,1.3.13c4.94-.9,10.22,1.78,12.08,6.19a12.88,12.88,0,0,1,.36,8.07,44.25,44.25,0,0,1-3.67,9.55c-1.87,3.88-3.77,7.75-5.58,11.66a12.38,12.38,0,0,0-1.17,4.92,2.38,2.38,0,0,1-4.74,0,15.14,15.14,0,0,1,1.52-6.85c1.64-3.62,3.42-7.18,5.15-10.77a46.34,46.34,0,0,0,3.78-9.43,9.23,9.23,0,0,0,.1-4.81A5.55,5.55,0,0,0,478.71,83.84Zm-2.92,7.09A10.79,10.79,0,0,0,473.73,85c-.37-.48-.64-.59-1.16-.19a6.12,6.12,0,0,0-2.67,4.57,10.66,10.66,0,0,0,.84,5.35,2.08,2.08,0,0,0,1.84,1.39,2.34,2.34,0,0,0,2.18-1.27,2.84,2.84,0,0,0,.35-.75C475.36,93.05,475.57,92,475.79,90.93Zm-19.34-6.46a.89.89,0,0,0-.24.16c-2.26,2.28-3,7.12-1.52,10A3.37,3.37,0,0,0,456,95.92c1.21.63,2.36,0,3-1.46a10.76,10.76,0,0,0,.66-5.3A6,6,0,0,0,456.45,84.47Z"/><path class="cls-1" d="M68.84,73.05C71,70.85,73,69,74.78,67c6.1-7.1,9.77-15.55,13.36-24.08,2.47-5.86,3.91-11.77,3.42-18.18a94.2,94.2,0,0,1,0-10.89,6.87,6.87,0,0,1,1.1-3.46c3.13-4.62,9.18-6.4,15.15-4.47,7,2.26,11.66,7.18,15,13.5,4.32,8.21,5.5,17,4.8,26.16-.32,4.2-1,8.37-1.62,12.73h1.84c10,0,19.91-.32,29.84.09,8.85.37,16,4.5,21.23,11.77,2.8,3.92,2.67,8.46,2,12.91-.4,2.6-1.5,5.09-2.24,7.64a3.23,3.23,0,0,0-.07,1.66c1.89,7.08,1.24,13.67-3.58,19.53a3.08,3.08,0,0,0-.41,1.81c0,4.61-.19,9.25-2.16,13.47-1.21,2.58-3.19,4.8-4.76,7.23a6.78,6.78,0,0,0-1.2,2.57,28,28,0,0,1-8,16.94,11.56,11.56,0,0,1-8.51,3.47c-22.4,0-44.8-.09-67.19,0A22.58,22.58,0,0,1,70.3,153.8c-.5-.31-1-.59-1.67-1a14,14,0,0,1-4.45,8.78,13.89,13.89,0,0,1-9.67,3.52c-13.46,0-26.92.07-40.39,0C5.53,165,0,159.33,0,150.76V72.48C0,63.92,5.64,58.3,14.22,58.3c13.41,0,26.81.13,40.21,0,7.83-.11,14,5.84,14.13,12.86C68.57,71.57,68.69,72,68.84,73.05Zm46.45,76.75c11.25,0,22.51,0,33.76,0a6,6,0,0,0,5.11-2.38c3.11-4,5-8.37,4.72-13.5a4.1,4.1,0,0,1,2-4.08,10.5,10.5,0,0,0,5.11-7.6,65.66,65.66,0,0,0,.78-9.91,6.91,6.91,0,0,1,1.91-5.12,12,12,0,0,0,2.67-4.53,13.41,13.41,0,0,0-.92-10.23c-1-2.06-.84-4.16.84-5.08a3.47,3.47,0,0,0,1.83-3.14,49.24,49.24,0,0,0,.42-6.4,6.77,6.77,0,0,0-1.12-3.65,19.68,19.68,0,0,0-15.13-8.3c-5.76-.28-11.55-.06-17.32-.06-6.14,0-12.27,0-18.41,0-3.44,0-5-2-4.18-5.34.08-.35.18-.69.27-1,2.16-8.54,3.35-17.17,1.91-26-1-6.36-3.25-12.2-8-16.75-2.65-2.52-5.68-4.36-9.58-3.86-2.07.27-2.75,1.11-2.76,3.16,0,5.66,0,11.32,0,17a8.75,8.75,0,0,1-.43,3c-2.28,5.93-4.45,11.92-7,17.73-5,11.19-11.65,21.14-22.16,28a2.39,2.39,0,0,0-.76,1.78q-.06,28.93,0,57.88a2.53,2.53,0,0,0,.41,1.66c3.49,3.48,7.19,6.69,12.52,6.71C92.89,149.83,104.09,149.8,115.29,149.8ZM61,111.74V72.43c0-4.23-2.23-6.54-6.48-6.55q-20.19-.06-40.38,0c-4.25,0-6.45,2.3-6.45,6.58q0,39.23,0,78.44c0,4.29,2.21,6.47,6.49,6.47H54.51c4.27,0,6.44-2.19,6.44-6.5Z"/><path class="cls-1" d="M310.25,52.78h0a9.49,9.49,0,0,0-13.43,0L278,71.58l-18.8-18.8a9.48,9.48,0,0,0-13.42,0h0a9.49,9.49,0,0,0,0,13.43L264.6,85l-18.79,18.79a9.49,9.49,0,0,0,0,13.43h0a9.48,9.48,0,0,0,13.42,0L278,98.42l18.79,18.8a9.49,9.49,0,0,0,13.43,0h0a9.49,9.49,0,0,0,0-13.43L291.45,85l18.8-18.79A9.49,9.49,0,0,0,310.25,52.78Z"/></g></g></svg>