<svg xmlns="http://www.w3.org/2000/svg" viewBox="0 0 128 128"><defs><style>.cls-1,.cls-4{fill:#fff;}.cls-1{opacity:0;}.cls-2{fill:#040000;opacity:0.1;}.cls-3{fill:#44494f;}.cls-5{fill:#0d0d0d;opacity:0.06;}.cls-6{fill:#f7bfa1;}.cls-7{fill:#f29b84;}.cls-8{fill:#f9f8c9;}.cls-9{fill:#fefdf0;}.cls-10{fill:#8bc66f;}.cls-11{fill:#f4db6d;}.cls-12{fill:#e06276;}.cls-13,.cls-15{fill:#899c99;}.cls-13,.cls-14{opacity:0.5;}.cls-16{fill:#f29640;}.cls-17{fill:#e8ea76;}.cls-18{fill:#6992a1;}.cls-19{fill:#7bcad4;}.cls-20{fill:#82ccd3;}.cls-21{fill:#e4e78e;}.cls-22{fill:#e5a871;}</style></defs><g id="レイヤー_2" data-name="レイヤー 2"><g id="_0" data-name="0"><rect class="cls-1" width="128" height="128"/><path class="cls-2" d="M128,51.92V128H48.64L21.31,100.67V41.81h0V33.56h.08a2.59,2.59,0,0,1-.08-.63A2.89,2.89,0,0,1,24.15,30h82Z"/><path class="cls-3" d="M107.23,31V99.69H20.81V39.32h0V31.61h.08a2.33,2.33,0,0,1-.08-.59,2.71,2.71,0,0,1,2.71-2.71h81A2.71,2.71,0,0,1,107.23,31Z"/><rect class="cls-4" x="22.34" y="38.9" width="83.32" height="59"/><rect class="cls-5" x="22.34" y="38.9" width="83.32" height="3.51"/><polygon class="cls-6" points="98.85 47.9 98.85 58.37 91.82 58.37 84.83 64.81 73.36 54.26 66.94 60.17 60.94 60.17 60.94 47.9 98.85 47.9"/><polygon class="cls-7" points="98.85 58.37 98.85 70.05 60.94 70.05 60.94 60.17 66.94 60.17 73.36 54.26 84.83 64.81 91.82 58.37 98.85 58.37"/><polygon class="cls-8" points="98.85 57.76 98.85 59.1 92.16 59.1 84.84 65.81 73.34 55.27 67.2 60.9 60.94 60.9 60.94 59.55 66.59 59.55 73.34 53.37 84.84 63.91 91.55 57.76 98.85 57.76"/><ellipse class="cls-9" cx="73.53" cy="54.8" rx="1.35" ry="1.32"/><path class="cls-9" d="M93.17,58.37a1.35,1.35,0,1,1-1.35-1.31A1.34,1.34,0,0,1,93.17,58.37Z"/><ellipse class="cls-9" cx="84.81" cy="64.76" rx="1.35" ry="1.32"/><ellipse class="cls-9" cx="67.08" cy="59.8" rx="1.35" ry="1.32"/><path class="cls-10" d="M42,36a2.18,2.18,0,1,1,2-2.18A2.12,2.12,0,0,1,42,36Z"/><ellipse class="cls-11" cx="34.56" cy="33.81" rx="2.05" ry="2.18"/><ellipse class="cls-12" cx="27.1" cy="33.81" rx="2.05" ry="2.18"/><rect class="cls-13" x="29.84" y="79.91" width="12.94" height="10.81"/><g class="cls-14"><rect class="cls-15" x="44.84" y="88.48" width="8.65" height="1.49"/><rect class="cls-15" x="44.84" y="80.35" width="17.87" height="1.56"/><rect class="cls-15" x="44.84" y="84.4" width="17.87" height="1.56"/></g><rect class="cls-13" x="66.66" y="79.91" width="12.94" height="10.81"/><g class="cls-14"><rect class="cls-15" x="81.66" y="88.48" width="8.65" height="1.49"/><rect class="cls-15" x="81.66" y="80.35" width="17.87" height="1.56"/><rect class="cls-15" x="81.66" y="84.4" width="17.87" height="1.56"/></g><path class="cls-16" d="M55.59,57.2a14.67,14.67,0,0,0-3.37-6.46A14.46,14.46,0,0,0,46,46.65c-.26-.09-.51-.17-.78-.24a14.48,14.48,0,0,0-6.88-.2,14.78,14.78,0,0,0-7,3.63L42.13,60.73l13.32,3.64A14.42,14.42,0,0,0,55.59,57.2Z"/><path class="cls-17" d="M55.45,64.37a14.42,14.42,0,0,0,.14-7.17L42.13,60.73l9.79,9.89A14.49,14.49,0,0,0,55.45,64.37Z"/><path class="cls-18" d="M37.49,74.62a14.55,14.55,0,0,1-6-3.28l-.05,0a14.63,14.63,0,0,1-.11-21.45L42.13,60.73,38.28,74.82C38,74.76,37.75,74.7,37.49,74.62Z"/><path class="cls-19" d="M38.28,74.82a14.52,14.52,0,0,0,7.45-.35l.07,0a14.6,14.6,0,0,0,6.12-3.82l-9.74-9.84v0l0,0,0,0,0,.07L31.51,71.34a14.55,14.55,0,0,0,6,3.28C37.75,74.7,38,74.76,38.28,74.82Z"/><rect class="cls-20" x="93.3" y="71.7" width="5.56" height="3.43"/><rect class="cls-21" x="86.16" y="71.7" width="5.56" height="3.43"/><rect class="cls-22" x="79.03" y="71.7" width="5.56" height="3.43"/><rect class="cls-18" x="71.9" y="71.7" width="5.56" height="3.43"/></g></g></svg>