<svg xmlns="http://www.w3.org/2000/svg" viewBox="0 0 128 128"><defs><style>.cls-1{fill:#fff;opacity:0;}.cls-2{fill:#040000;opacity:0.1;}.cls-3{fill:#c3c2c6;}.cls-4{fill:#b3b2b6;}.cls-5{fill:#c9c8cd;}.cls-6{fill:#2d2d33;}.cls-7{fill:#f4f4f5;}</style></defs><g id="レイヤー_2" data-name="レイヤー 2"><g id="_0" data-name="0"><rect class="cls-1" width="128" height="128"/><polygon class="cls-2" points="128 51.84 128 128 63.23 128 23.91 88.68 20.25 85.02 20.25 61.8 24.15 57.89 25.54 56.51 29.9 52.15 39.76 42.29 44.33 37.72 45.3 36.75 49.04 33.01 54.05 27.99 104.15 27.99 128 51.84"/><polygon class="cls-3" points="78.29 97.42 49.71 97.42 50.72 75.97 77.28 75.97 78.29 97.42"/><polygon class="cls-4" points="77.92 90.42 50.08 90.42 50.72 76.86 77.28 76.86 77.92 90.42"/><path class="cls-5" d="M45,95.63H83A4.39,4.39,0,0,1,87.4,100H40.6A4.39,4.39,0,0,1,45,95.63Z"/><path class="cls-5" d="M107.75,59.84V86.73a1.94,1.94,0,0,1-1.93,2H22.18a1.94,1.94,0,0,1-1.93-2V59.84a1.94,1.94,0,0,1,1.93-2h83.64A1.94,1.94,0,0,1,107.75,59.84Z"/><path class="cls-6" d="M107.75,30.53v49H20.25v-49h.06A3.19,3.19,0,0,1,23.42,28h81.16a3.19,3.19,0,0,1,3.11,2.54Z"/><rect class="cls-7" x="25.53" y="33.01" width="76.93" height="41.51"/><rect class="cls-4" x="29.91" y="42.3" width="20.85" height="10.19"/><rect class="cls-4" x="53.89" y="42.3" width="20.85" height="10.19"/><rect class="cls-4" x="77.87" y="42.3" width="20.85" height="10.19"/><rect class="cls-4" x="29.91" y="54.12" width="11.92" height="1.94"/><rect class="cls-4" x="35.02" y="36.75" width="11.92" height="0.97"/><rect class="cls-4" x="29.91" y="68.07" width="11.92" height="1.94"/><rect class="cls-4" x="29.91" y="57.25" width="21" height="1.94"/><rect class="cls-4" x="29.91" y="60.85" width="21" height="1.94"/><rect class="cls-4" x="29.91" y="64.45" width="21" height="1.94"/><rect class="cls-4" x="54.26" y="54.12" width="11.92" height="1.94"/><rect class="cls-4" x="54.26" y="68.07" width="11.92" height="1.94"/><rect class="cls-4" x="54.26" y="57.25" width="21" height="1.94"/><rect class="cls-4" x="54.26" y="60.85" width="21" height="1.94"/><rect class="cls-4" x="54.26" y="64.45" width="21" height="1.94"/><rect class="cls-4" x="77.85" y="54.12" width="11.92" height="1.94"/><rect class="cls-4" x="77.85" y="68.07" width="11.92" height="1.94"/><rect class="cls-4" x="77.85" y="57.25" width="21" height="1.94"/><rect class="cls-4" x="77.85" y="60.85" width="21" height="1.94"/><rect class="cls-4" x="77.85" y="64.45" width="21" height="1.94"/><path class="cls-4" d="M32.69,36.21h0a1.44,1.44,0,0,1,0,2h0a1.45,1.45,0,0,1-2,0h0a1.44,1.44,0,0,1,0-2h0A1.45,1.45,0,0,1,32.69,36.21Z"/><rect class="cls-4" x="93.23" y="36.55" width="1.37" height="1.37" transform="translate(134 129.97) rotate(-135)"/><rect class="cls-4" x="96.55" y="36.55" width="1.37" height="1.37" transform="translate(139.66 132.31) rotate(-135)"/><rect class="cls-4" x="90.29" y="36.55" width="1.37" height="1.37" transform="translate(128.98 127.89) rotate(-135)"/></g></g></svg>