<svg xmlns="http://www.w3.org/2000/svg" viewBox="0 0 105.79 106.8"><defs><style>.cls-1{fill:#040000;opacity:0.1;}</style></defs><g id="レイヤー_2" data-name="レイヤー 2"><g id="_0" data-name="0"><path class="cls-1" d="M105.79,27.75V106.8H24.64L0,82.16c2.06-4.54,4.68-14.55,4.68-14.55a17.17,17.17,0,0,0,7.72-2,9,9,0,0,0,1.54-1.13,3.08,3.08,0,0,1,.05-4.3L37.18,37l1.3-1.31-1.14-1.14L62.62,9.25l-1-1L50.27,19.69a1,1,0,0,1-1.36-1.35L64.65,2.6A.94.94,0,0,1,66,2.6a1,1,0,0,1,0,1.34L65,5l1,1,3.24-3.25A9.07,9.07,0,0,1,78.52.47l2.77,2.78,3,3Z"/></g></g></svg>