<svg xmlns="http://www.w3.org/2000/svg" viewBox="0 0 128 128"><defs><style>.cls-1{fill:#fff;opacity:0;}.cls-2,.cls-4,.cls-7{fill:#040000;}.cls-2{opacity:0.1;}.cls-3{fill:#f5f2d8;}.cls-4{opacity:0.2;}.cls-5{fill:#526574;}.cls-6{fill:#ef8d8c;}.cls-7{opacity:0.08;}</style></defs><g id="レイヤー_2" data-name="レイヤー 2"><g id="_0" data-name="0"><rect class="cls-1" width="128" height="128"/><path class="cls-2" d="M128,49V128H46.85L22.21,103.36c2.06-4.54,4.68-14.55,4.68-14.55a17.1,17.1,0,0,0,7.72-2,9.31,9.31,0,0,0,1.54-1.12,3.08,3.08,0,0,1,.05-4.3L59.39,58.18l1.29-1.31-1.13-1.14L84.83,30.45l-1-1L72.47,40.88a.93.93,0,0,1-1.35,0,1,1,0,0,1,0-1.34L86.86,23.8a.94.94,0,0,1,1.36,0,1,1,0,0,1,0,1.34l-1,1,1,1,3.24-3.25a9.06,9.06,0,0,1,9.3-2.19l2.78,2.78,3,3Z"/><path class="cls-3" d="M42.43,91.47a2.68,2.68,0,0,0-.23.26,8.55,8.55,0,0,0-1.14,1.51,17.14,17.14,0,0,0-2,7.71s-10,2.61-14.55,4.7a7.57,7.57,0,0,0-2,1.17l1.57-1.57,6.11-6.11a1.8,1.8,0,0,0,1.51-.5,1.76,1.76,0,0,0,.5-1.32.63.63,0,0,0,0-.27h0a1.41,1.41,0,0,0-.24-.58,1.73,1.73,0,0,0-.19-.28l0,0a1.78,1.78,0,0,0-2.51,0,1.76,1.76,0,0,0-.5,1.51L21,105.32a7.31,7.31,0,0,0,1.17-2c2.06-4.54,4.68-14.55,4.68-14.55a17.1,17.1,0,0,0,7.72-2,9.31,9.31,0,0,0,1.54-1.12,2.61,2.61,0,0,1,.24-.23l3,3,0,0Z"/><path class="cls-4" d="M42.43,91.47a2.68,2.68,0,0,0-.23.26,8.55,8.55,0,0,0-1.14,1.51l-3.17-3.18-3.28-3.28a9.31,9.31,0,0,0,1.54-1.12,2.61,2.61,0,0,1,.24-.23l3,3,0,0Z"/><path class="cls-5" d="M82.57,56.15,71.72,67l-.45.45L46.78,91.94a3.07,3.07,0,0,1-4.36,0L36.2,85.72a.13.13,0,0,1-.05-.06,3.08,3.08,0,0,1,.05-4.3L59.39,58.18l1.29-1.31h0L72,45.58l5.18,5.19Z"/><rect class="cls-4" x="64.32" y="55.11" width="2.47" height="14.96" transform="translate(-25.06 64.69) rotate(-45)"/><path class="cls-5" d="M107,30.3a9,9,0,0,1-2.68,6.42L101,40l-3.35,3.35L72.42,68.6l-1.15-1.14-5.39-5.41L60.7,56.87h0l-1.13-1.14L84.83,30.45l3.35-3.34,3.24-3.25a9.06,9.06,0,0,1,9.3-2.19,8.75,8.75,0,0,1,3.46,2.09s.08.06.1.1a9.12,9.12,0,0,1,2.22,3.58A9.3,9.3,0,0,1,107,30.3Z"/><polygon class="cls-6" points="101.04 39.97 97.69 43.31 91.16 36.79 83.87 29.49 83.69 29.31 87.03 25.96 101.04 39.97"/><path class="cls-7" d="M107,30.29a9.1,9.1,0,0,0-2.66-6.43l-.11-.1L31.75,96.19a1.76,1.76,0,0,1-1.54,3l-7.68,7.68c2.08-2.09,16.52-5.86,16.52-5.86a17,17,0,0,1,2-7.72,9.22,9.22,0,0,1,1.13-1.52l.22.22a3.07,3.07,0,0,0,4.36,0L70,68.76l1.3-1.31,1.15,1.15L97.7,43.32,101,40l3.25-3.25A9.11,9.11,0,0,0,107,30.29Z"/><path class="cls-6" d="M88.22,25.14l-1,1-3.35,3.34L72.47,40.88a.93.93,0,0,1-1.35,0,1,1,0,0,1,0-1.34L86.86,23.8a.94.94,0,0,1,1.36,0A1,1,0,0,1,88.22,25.14Z"/></g></g></svg>