<svg xmlns="http://www.w3.org/2000/svg" viewBox="0 0 128 127.56"><defs><style>.cls-1{fill:#f6f4e5;}.cls-2,.cls-5{fill:#040000;}.cls-2{opacity:0.2;}.cls-3{fill:#38814c;}.cls-4{fill:#f2da8f;}.cls-5{opacity:0.08;}</style></defs><g id="レイヤー_2" data-name="レイヤー 2"><g id="_6" data-name="6"><path class="cls-1" d="M31.87,104.69a3.08,3.08,0,0,0-.35.39,12.85,12.85,0,0,0-1.69,2.25c-3,5-3,11.34-3,11.5,0,0-14.89,3.89-21.68,7a11.58,11.58,0,0,0-2.94,1.74l2.35-2.33,9.09-9.11a2.66,2.66,0,0,0,2.25-.75,2.55,2.55,0,0,0,.75-2,.91.91,0,0,0,0-.4v0a2.17,2.17,0,0,0-.36-.86,2.26,2.26,0,0,0-.29-.42l-.06-.06a2.64,2.64,0,0,0-4.48,2.26L0,125.33a11.31,11.31,0,0,0,1.74-2.92c3.07-6.77,7-21.68,7-21.68s6.44,0,11.49-3A12.91,12.91,0,0,0,22.5,96l.37-.35c.83.84,4.5,4.5,4.5,4.5l.05.06Z"/><path class="cls-2" d="M31.87,104.69a3.08,3.08,0,0,0-.35.39,12.85,12.85,0,0,0-1.69,2.25L25.1,102.6l-4.89-4.89A12.91,12.91,0,0,0,22.5,96l.37-.35c.83.84,4.5,4.5,4.5,4.5l.05.06Z"/><path class="cls-3" d="M91.67,52.08,75.5,68.25l-.67.67L38.35,105.4a4.61,4.61,0,0,1-6.5,0l-9.27-9.27L22.5,96a4.6,4.6,0,0,1,.08-6.41L57.13,55.09l1.93-1.94h0L75.9,36.33l7.72,7.72Z"/><rect class="cls-2" x="64.47" y="50.53" width="3.68" height="22.29" transform="translate(-24.19 64.95) rotate(-45)"/><path class="cls-3" d="M128,13.56a13.41,13.41,0,0,1-4,9.57L119.19,28l-5,5L76.55,70.62l-1.72-1.7-8-8.05-7.72-7.72h0l-1.7-1.7L95,13.79l5-5L104.85,4A13.5,13.5,0,0,1,118.71.7a13,13,0,0,1,5.15,3.11A.73.73,0,0,1,124,4a13.35,13.35,0,0,1,3.3,5.33A13.52,13.52,0,0,1,128,13.56Z"/><polygon class="cls-4" points="119.19 27.97 114.19 32.95 104.47 23.23 93.6 12.36 93.33 12.09 98.31 7.09 119.19 27.97"/><path class="cls-5" d="M128,13.55A13.47,13.47,0,0,0,124,4l-.16-.14L16,111.73a2.62,2.62,0,0,1-2.3,4.39L2.22,127.56c3.1-3.11,24.61-8.73,24.61-8.73s0-6.44,3-11.5a13.58,13.58,0,0,1,1.69-2.26l.33.33a4.6,4.6,0,0,0,6.5,0L72.89,70.86l2-2,1.7,1.71L114.2,33l5-5L124,23.14A13.51,13.51,0,0,0,128,13.55Z"/><path class="cls-4" d="M100.08,5.87,98.59,7.38l-5,5-17,17a1.42,1.42,0,0,1-2-2L98.06,3.87a1.42,1.42,0,0,1,2,2Z"/></g></g></svg>